HIERARCHY
ROOT Hips
{
	OFFSET 0.000000 0.000000 0.000000
	CHANNELS 6 Xposition Yposition Zposition Xrotation Yrotation Zrotation
	JOINT LeftUpLeg_virtual
	{
		OFFSET 0.000000 0.000000 0.000000
		CHANNELS 3 Xrotation Yrotation Zrotation
		JOINT LeftUpLeg
		{
			OFFSET 11.394100 -6.187798 -0.413800
			CHANNELS 3 Xrotation Yrotation Zrotation
			JOINT LeftLeg
			{
				OFFSET 0.430247 -32.302673 3.732800
				CHANNELS 3 Xrotation Yrotation Zrotation
				JOINT LeftFoot
				{
					OFFSET -0.430247 -48.264931 -6.423300
					CHANNELS 3 Xrotation Yrotation Zrotation
					JOINT LeftToeBase
					{
						OFFSET 4.230900 -16.068199 23.438400
						CHANNELS 3 Xrotation Yrotation Zrotation
						JOINT LeftToe_End
						{
							OFFSET 4.510700 0.695400 19.974600
							CHANNELS 3 Xrotation Yrotation Zrotation
							End Site
							{
								OFFSET 0 0 0
							}
						}
					}
				}
			}
		}
	}
	JOINT RightUpLeg_virtual
	{
		OFFSET 0.000000 0.000000 0.000000
		CHANNELS 3 Xrotation Yrotation Zrotation
		JOINT RightUpLeg
		{
			OFFSET -11.333700 -6.187798 -0.413800
			CHANNELS 3 Xrotation Yrotation Zrotation
			JOINT RightLeg
			{
				OFFSET -0.430392 -32.302628 3.733000
				CHANNELS 3 Xrotation Yrotation Zrotation
				JOINT RightFoot
				{
					OFFSET 0.430392 -48.264973 -6.423500
					CHANNELS 3 Xrotation Yrotation Zrotation
					JOINT RightToeBase
					{
						OFFSET -4.230900 -16.068199 23.438400
						CHANNELS 3 Xrotation Yrotation Zrotation
						JOINT RightToe_End
						{
							OFFSET -4.510700 0.695400 19.974600
							CHANNELS 3 Xrotation Yrotation Zrotation
							End Site
							{
								OFFSET 0 0 0
							}
						}
					}
				}
			}
		}
	}
	JOINT Spine_virtual
	{
		OFFSET 0.000000 0.000000 0.000000
		CHANNELS 3 Xrotation Yrotation Zrotation
		JOINT Spine
		{
			OFFSET -0.002400 12.777504 0.315300
			CHANNELS 3 Xrotation Yrotation Zrotation
			JOINT Spine1
			{
				OFFSET -0.002067 5.816869 0.032633
				CHANNELS 3 Xrotation Yrotation Zrotation
				JOINT Spine1_split
				{
					OFFSET -0.002067 5.816869 0.032633
					CHANNELS 3 Xrotation Yrotation Zrotation
					JOINT Spine2
					{
						OFFSET -0.002067 5.816869 0.032633
						CHANNELS 3 Xrotation Yrotation Zrotation
						JOINT Neck_virtual
						{
							OFFSET 0.000000 0.000000 0.000000
							CHANNELS 3 Xrotation Yrotation Zrotation
							JOINT Neck
							{
								OFFSET -0.003700 21.199493 -0.826900
								CHANNELS 3 Xrotation Yrotation Zrotation
								JOINT Head
								{
									OFFSET 0.000000 20.442200 4.834800
									CHANNELS 3 Xrotation Yrotation Zrotation
									JOINT HeadTop_End
									{
										OFFSET 0.000000 34.668396 4.968400
										CHANNELS 3 Xrotation Yrotation Zrotation
										End Site
										{
											OFFSET 0 0 0
										}
									}
								}
							}
						}
						JOINT LeftShoulder_virtual
						{
							OFFSET 0.000000 0.000000 0.000000
							CHANNELS 3 Xrotation Yrotation Zrotation
							JOINT LeftShoulder
							{
								OFFSET 3.288150 8.794197 -1.372250
								CHANNELS 3 Xrotation Yrotation Zrotation
								JOINT LeftShoulder_split
								{
									OFFSET 3.288150 8.794197 -1.372250
									CHANNELS 3 Xrotation Yrotation Zrotation
									JOINT LeftArm
									{
										OFFSET 11.953299 -2.279007 -0.146200
										CHANNELS 3 Xrotation Yrotation Zrotation
										JOINT LeftForeArm
										{
											OFFSET 18.448900 0.000000 0.000000
											CHANNELS 3 Xrotation Yrotation Zrotation
											JOINT LeftHand
											{
												OFFSET 29.527798 0.000000 0.000000
												CHANNELS 3 Xrotation Yrotation Zrotation
												End Site
												{
													OFFSET 0 0 0
												}
											}
										}
									}
								}
							}
						}
						JOINT RightShoulder_virtual
						{
							OFFSET 0.000000 0.000000 0.000000
							CHANNELS 3 Xrotation Yrotation Zrotation
							JOINT RightShoulder
							{
								OFFSET -3.249400 8.794197 -1.372250
								CHANNELS 3 Xrotation Yrotation Zrotation
								JOINT RightShoulder_split
								{
									OFFSET -3.249400 8.794197 -1.372250
									CHANNELS 3 Xrotation Yrotation Zrotation
									JOINT RightArm
									{
										OFFSET -11.953299 -2.279007 -0.146200
										CHANNELS 3 Xrotation Yrotation Zrotation
										JOINT RightForeArm
										{
											OFFSET -18.448900 0.000000 0.000000
											CHANNELS 3 Xrotation Yrotation Zrotation
											JOINT RightHand
											{
												OFFSET -29.527802 0.000000 0.000000
												CHANNELS 3 Xrotation Yrotation Zrotation
												End Site
												{
													OFFSET 0 0 0
												}
											}
										}
									}
								}
							}
						}
					}
				}
			}
		}
	}
}
MOTION
Frames: 4
Frame Time: 0.03333333
3.264008 88.809410 -0.243721 0.000000 0.000000 0.000000 13.111977 -85.733682 15.430881 -26.711678 26.903676 33.290854 26.808411 -12.077728 1.031004 -5.462386 3.952169 -18.846642 0.537657 -0.696491 -0.811898 0.000000 0.000000 0.000000 3.703576 -85.440093 7.028809 -40.780167 -3.301504 -27.177688 28.085350 4.532312 -4.928146 5.025613 7.070504 24.375606 2.902817 0.922273 1.846243 0.000000 0.000000 0.000000 7.858507 -81.689650 10.529917 6.417471 -3.534627 -3.138622 1.854028 -8.006648 -0.419660 0.552237 0.191257 0.259550 0.000000 0.000000 0.000000 1.883754 -8.392927 -0.865218 -8.405895 6.167340 7.138714 90.669149 78.095468 -94.681523 0.000000 0.000000 0.000000 3.231279 -8.987740 -0.241711 5.102302 -1.051109 10.884613 -4.123287 -4.351824 2.782947 -35.234934 11.253190 -2.740632 -3.921014 -11.055586 0.341860 0.000000 0.000000 0.000000 2.529611 -8.715556 -0.828090 -0.127351 1.026538 -21.606233 0.886749 1.796709 7.369407 -49.923639 42.101245 44.985982 179.239122 37.091971 -178.019756 0.000000 0.000000 0.000000 
3.203073 88.810455 -0.237488 0.000000 0.000000 0.000000 12.272581 -85.626994 14.642073 -26.651096 26.890142 33.217273 26.734368 -12.145475 1.021481 -5.417508 3.962430 -18.827693 0.531861 -0.694137 -0.812295 0.000000 0.000000 0.000000 3.057054 -85.340700 6.444296 -40.531729 -3.241740 -27.223169 28.167094 4.395604 -4.939555 4.799795 7.012880 24.493793 2.912026 0.919926 1.831443 0.000000 0.000000 0.000000 7.602330 -81.572184 10.320356 6.397622 -3.632469 -3.198179 1.849575 -8.098797 -0.403171 0.552393 0.191142 0.255210 0.000000 0.000000 0.000000 1.887549 -8.487074 -0.852771 -8.427289 6.241127 7.358845 93.456734 78.031865 -97.273628 0.000000 0.000000 0.000000 3.249482 -9.082092 -0.216115 5.010654 -0.828152 10.910584 -4.146773 -4.351179 2.763943 -35.187676 11.104461 -2.968131 -3.928428 -11.067993 0.337441 0.000000 0.000000 0.000000 2.547113 -8.811117 -0.819706 -0.034414 1.063829 -21.538291 0.867068 1.796424 7.428615 -49.412706 41.648878 44.747902 179.257823 36.734960 -178.009278 0.000000 0.000000 0.000000 
3.142069 88.811310 -0.225174 0.000000 0.000000 0.000000 11.445454 -85.526481 13.873030 -26.596589 26.872145 33.142011 26.671347 -12.209050 1.016000 -5.363412 3.964107 -18.808328 0.530288 -0.691444 -0.810719 0.000000 0.000000 0.000000 2.427965 -85.241198 5.881683 -40.275734 -3.178969 -27.264787 28.242276 4.262570 -4.955798 4.579210 6.953937 24.607522 2.911362 0.920089 1.821275 0.000000 0.000000 0.000000 7.306451 -81.461481 10.080604 6.387428 -3.728641 -3.271262 1.843454 -8.190625 -0.380463 0.554289 0.189629 0.252449 0.000000 0.000000 0.000000 1.891162 -8.580061 -0.834817 -8.447658 6.323653 7.578984 96.225501 77.928470 -99.826493 0.000000 0.000000 0.000000 3.270854 -9.176659 -0.183747 4.917650 -0.612722 10.939782 -4.162401 -4.349038 2.749588 -35.150759 10.969855 -3.194744 -3.943040 -11.068555 0.324343 0.000000 0.000000 0.000000 2.564322 -8.906221 -0.805759 0.065029 1.102242 -21.461032 0.847330 1.806019 7.483805 -48.868969 41.181383 44.482802 179.283791 36.387549 -177.996670 0.000000 0.000000 0.000000 
3.081295 88.810226 -0.210655 0.000000 0.000000 0.000000 10.634981 -85.430271 13.125229 -26.549456 26.851263 33.068508 26.617985 -12.267436 1.013285 -5.310650 3.962070 -18.785604 0.538906 -0.688045 -0.810670 0.000000 0.000000 0.000000 1.816920 -85.138042 5.338428 -40.013714 -3.113092 -27.304202 28.312712 4.138052 -4.976655 4.371878 6.901778 24.725170 2.889937 0.921969 1.815752 0.000000 0.000000 0.000000 6.975785 -81.358276 9.813315 6.389537 -3.822837 -3.355583 1.835561 -8.280214 -0.351336 0.555809 0.188946 0.252652 0.000000 0.000000 0.000000 1.894342 -8.669493 -0.811428 -8.463890 6.413740 7.790671 98.912921 77.789844 -102.288565 0.000000 0.000000 0.000000 3.294757 -9.269555 -0.144991 4.826896 -0.415837 10.973151 -4.164312 -4.344331 2.737967 -35.125703 10.860123 -3.409082 -3.964153 -11.064866 0.302783 0.000000 0.000000 0.000000 2.580236 -8.998827 -0.785781 0.170813 1.146066 -21.372963 0.824844 1.820813 7.530196 -48.301165 40.716308 44.188015 179.321071 36.061913 -177.984689 0.000000 0.000000 0.000000 
